<svg width="277" height="273" viewBox="0 0 277 273" fill="none" xmlns="http://www.w3.org/2000/svg">
<path d="M200.993 22.5096H172.682V122.037H200.993V22.5096Z" fill="#676BC4"/>
<path d="M172.682 22.5096H129.886V122.037H172.682V22.5096Z" fill="#868AE0"/>
<path d="M200.993 22.5096L185.63 8.18958L172.682 22.5096H200.993Z" fill="#4E53BA"/>
<path d="M129.886 22.5096H172.682L185.63 8.18958H146.62L129.886 22.5096Z" fill="#B6B6ED"/>
<path d="M182.613 0.234009H149.693C148.047 0.234009 146.675 1.60567 146.675 3.25166V8.18963H185.685V3.25166C185.685 1.5508 184.313 0.234009 182.613 0.234009Z" fill="#676BC4"/>
<path d="M200.993 22.5096L181.954 12.2496L185.63 8.18958L200.993 22.5096Z" fill="#32378F"/>
<path d="M172.682 47.3092H129.886V94.8235H172.682V47.3092Z" fill="#EBDBCD"/>
<path d="M200.993 47.3092H172.682V94.8235H200.993V47.3092Z" fill="#DEC7B2"/>
<path d="M57.9561 222.388C55.158 220.797 54.2252 217.23 55.7615 214.432L98.0635 129.993C99.6546 127.14 103.331 126.097 106.184 127.743L113.207 131.803C116.06 133.449 116.992 137.126 115.291 139.924L65.9667 220.303C64.2658 223.046 60.7543 223.924 57.9561 222.388Z" fill="#8A6645"/>
<path d="M267.93 222.388C270.728 220.797 271.661 217.23 270.124 214.432L227.822 129.993C226.231 127.14 222.555 126.097 219.702 127.743L212.679 131.803C209.826 133.449 208.894 137.126 210.594 139.924L259.974 220.303C261.62 223.046 265.186 223.924 267.93 222.388Z" fill="#8A6645"/>
<path d="M270.838 142.064H55.1031C52.25 142.064 49.8908 139.759 49.8908 136.851V127.304C49.8908 124.451 52.1952 122.092 55.1031 122.092H270.838C273.691 122.092 276.05 124.397 276.05 127.304V136.851C275.995 139.759 273.691 142.064 270.838 142.064Z" fill="#C49C77"/>
<path d="M222.336 122.092H211.308C203.791 122.092 197.591 116.221 197.207 108.76L195.451 76.169C195.396 74.9619 196.384 73.9194 197.536 73.9194H236.107C237.314 73.9194 238.302 74.9619 238.247 76.169L236.491 108.76C235.997 116.221 229.853 122.092 222.336 122.092Z" fill="#FF5856"/>
<path d="M237.808 81.3264L237.534 86.3193C242.088 87.252 245.489 91.2573 245.489 96.0855C245.489 101.298 241.484 105.577 236.382 106.016L236.107 111.009C244.063 110.735 250.482 104.151 250.482 96.0855C250.427 88.6237 244.941 82.4237 237.808 81.3264Z" fill="#FF5856"/>
<path d="M219.702 66.3479C219.702 66.3479 210.265 57.6241 210.54 51.2048C211.033 41.3837 219.812 37.6528 216.41 28.4352C214.819 24.0459 208.18 9.83557 208.18 9.83557C208.18 9.83557 219.099 20.6441 222.994 27.283C226.506 33.3183 226.067 42.865 222.281 47.4738C213.996 57.4595 219.702 66.3479 219.702 66.3479Z" fill="#DCDCED"/>
<path d="M46.4342 259.258C71.563 259.258 91.9184 238.903 91.9184 213.774C91.9184 188.645 71.563 168.29 46.4342 168.29C21.3054 168.29 0.950012 188.645 0.950012 213.774C0.950012 238.903 21.3054 259.258 46.4342 259.258Z" fill="#FF8A91"/>
<path d="M246.477 259.258H44.7882C41.7706 259.258 39.3565 256.789 39.3565 253.826C39.3565 250.864 41.8254 248.395 44.7882 248.395H246.477C249.495 248.395 251.909 250.864 251.909 253.826C251.964 256.789 249.495 259.258 246.477 259.258Z" fill="#FF8A91"/>
<path d="M44.7334 207.025C40.6184 209.22 39.4662 214.597 41.2768 218.657C43.4714 223.485 49.2324 224.692 53.7863 222.553C56.2004 221.455 58.1756 219.48 59.2181 217.011C60.2605 214.652 60.3703 211.854 59.7667 209.33C58.3402 203.624 53.7314 199.728 48.0802 198.576C42.429 197.424 35.7353 198.96 31.73 203.294C27.7248 207.574 26.8469 214.323 27.6699 219.919C28.3832 225.131 30.7424 230.069 34.5282 233.69C38.8078 237.751 44.6236 239.177 50.3846 238.903C53.3474 238.738 56.2553 238.19 59.1084 237.367C62.0163 236.544 64.8693 235.501 67.5578 234.129C72.4409 231.605 76.3912 227.765 78.4213 222.607C82.2619 212.731 79.1346 201.264 71.8373 193.967C67.7224 189.852 62.5649 186.944 57.0783 185.134C51.4271 183.268 45.3369 182.281 39.4113 182.61C33.4858 182.939 27.9443 185.243 23.6098 189.304C19.8789 192.815 17.1356 197.314 15.3799 202.142C12.033 211.36 11.8136 222.498 16.3126 231.386C21.6346 241.865 32.6079 247.681 43.8555 249.327C46.7085 249.766 49.6165 249.931 52.5244 249.931C53.2377 249.931 53.9509 249.492 54.0058 248.724C54.1155 248.065 53.512 247.188 52.7987 247.188C42.429 247.297 31.4008 244.664 23.8841 237.092C20.5922 233.8 18.178 229.795 16.8613 225.296C15.6542 220.961 15.3798 216.408 15.8736 211.963C16.8612 202.801 21.1408 193.473 29.1513 188.481C33.8149 185.573 39.1919 185.024 44.5688 185.408C49.8359 185.792 55.0482 186.999 59.9314 189.139C64.6499 191.224 68.9843 194.351 72.1665 198.411C74.9647 202.033 76.7204 206.367 77.2691 210.921C77.7629 215.31 77.1045 219.864 74.9647 223.76C72.5506 228.204 68.3259 231.002 63.772 232.867C54.6642 236.598 42.2095 238.738 35.0769 230.234C32.0592 226.668 30.523 222.114 30.2486 217.505C29.9743 212.402 31.2911 206.587 35.6804 203.514C39.8503 200.661 45.8307 200.167 50.4394 202.087C54.719 203.898 57.8464 208.232 57.4624 213.006C57.2978 215.2 56.4199 217.231 54.719 218.657C53.1279 220.029 50.9881 220.852 48.8483 220.742C46.928 220.632 45.1174 219.754 44.1298 218.054C43.252 216.572 43.0325 214.762 43.3617 213.116C43.636 211.634 44.459 210.208 45.8855 209.439C47.3121 208.726 46.2696 206.202 44.7334 207.025Z" fill="#FFADB2"/>
<path d="M210.759 207.19H203.517C199.456 207.19 196 209.549 194.354 212.951V212.896L190.897 219.7H149.254L145.797 212.896V212.951C144.151 209.549 140.695 207.19 136.635 207.19H129.392C121.107 207.19 114.359 213.884 114.359 222.223V233.306C114.359 241.591 121.052 248.34 129.392 248.34H136.635C140.695 248.34 144.151 245.98 145.797 242.579V242.634L149.254 235.83H190.897L194.354 242.634V242.579C196 245.98 199.456 248.34 203.517 248.34H210.759C219.044 248.34 225.792 241.646 225.792 233.306V222.223C225.737 213.938 219.044 207.19 210.759 207.19Z" fill="#4E53BA"/>
<path d="M188.044 231.825H180.802C176.742 231.825 173.285 234.184 171.639 237.586V237.531L168.183 244.334H126.539L123.083 237.531V237.586C121.437 234.184 117.98 231.825 113.92 231.825H106.677C98.3927 231.825 91.6441 238.519 91.6441 246.858V257.941C91.6441 266.226 98.3378 272.975 106.677 272.975H113.92C117.98 272.975 121.437 270.615 123.083 267.214V267.269L126.539 260.465H168.183L171.639 267.269V267.214C173.285 270.615 176.742 272.975 180.802 272.975H188.044C196.329 272.975 203.078 266.281 203.078 257.941V246.858C203.078 238.573 196.329 231.825 188.044 231.825Z" fill="#868AE0"/>
<path d="M160.337 18.9983C162.422 17.7913 163.19 15.1577 162.038 13.1277C160.885 11.0976 158.197 10.3843 156.112 11.5914C154.027 12.7984 153.204 15.432 154.411 17.4621C155.563 19.547 158.252 20.2054 160.337 18.9983Z" fill="#EBDBCD"/>
<path d="M154.137 17.7913L155.618 18.8337L160.885 11.8657L159.678 10.9878L154.137 17.7913Z" fill="#EBDBCD"/>
<path d="M159.02 18.0655C161.105 16.8585 161.928 14.2248 160.721 12.1947C159.569 10.1647 156.88 9.4515 154.795 10.6586C152.71 11.8656 151.887 14.4992 153.094 16.5292C154.247 18.6142 156.935 19.2726 159.02 18.0655Z" fill="#F8F1EB"/>
<path d="M169.061 122.092H94.1679C87.6389 122.092 81.3292 119.349 76.885 114.575L76.2266 113.862H186.014C186.398 113.862 186.563 114.301 186.343 114.575C181.844 119.404 175.59 122.092 169.061 122.092Z" fill="#D3D3F0"/>
<path d="M119.571 113.862H102.014C99.2157 113.862 96.9113 111.558 96.9113 108.76V107.278C96.9113 100.146 102.782 94.2749 109.915 94.2749H111.615C118.803 94.2749 124.619 100.146 124.619 107.278V108.814C124.674 111.558 122.369 113.862 119.571 113.862Z" fill="#D19673"/>
<path d="M140.311 113.862H109.421C106.623 113.862 104.318 111.558 104.318 108.76V104.645C104.318 94.6589 112.493 86.4839 122.479 86.4839H127.198C137.183 86.4839 145.358 94.6589 145.358 104.645V108.76C145.468 111.558 143.164 113.862 140.311 113.862Z" fill="#E0A17B"/>
<path d="M154.027 113.862H123.137C120.339 113.862 118.035 111.558 118.035 108.76V104.315C118.035 94.4944 126.1 86.4839 135.866 86.4839H141.243C151.064 86.4839 159.075 94.5492 159.075 104.315V108.76C159.13 111.558 156.825 113.862 154.027 113.862Z" fill="#E8AA84"/>
<path d="M157.758 113.862H140.201C137.403 113.862 135.098 111.558 135.098 108.76V107.278C135.098 100.091 140.969 94.22 148.156 94.22H149.802C156.99 94.22 162.861 100.091 162.861 107.278V108.76C162.861 111.558 160.556 113.862 157.758 113.862Z" fill="#EDB593"/>
</svg>
